<svg preserveAspectRatio="none" overflow="visible" style="display: block;" width="31.3125" height="31.3125" viewBox="0 0 31.3125 31.3125" fill="none" xmlns="http://www.w3.org/2000/svg">
<g id="Paragraph">
<path id="Symbol" opacity="0.2" d="M27.6301 25.4563C27.6301 25.4954 27.635 25.5393 27.6447 25.5882C27.6545 25.637 27.6594 25.6809 27.6594 25.72C27.6594 25.9739 27.5666 26.1936 27.3811 26.3792C27.1955 26.5647 26.9758 26.6575 26.7219 26.6575C26.6828 26.6575 26.6389 26.6526 26.59 26.6428C26.5412 26.6331 26.4973 26.6282 26.4582 26.6282V26.6282L23.2063 25.6614C22.6398 25.9739 22.0148 26.218 21.3313 26.3938C20.6477 26.5696 19.9445 26.6575 19.2219 26.6575C18.3039 26.6575 17.4348 26.5208 16.6145 26.2473C15.7746 25.9739 15.008 25.5882 14.3146 25.0901C13.6213 24.5921 13.0207 24.0012 12.5129 23.3177C11.9855 22.6341 11.5754 21.8919 11.2824 21.0911L11.2531 21.0325C11.3313 21.0325 11.4094 21.0325 11.4875 21.0325C11.5656 21.0325 11.6438 21.0325 11.7219 21.0325V21.0325V21.0325C12.8938 21.0325 13.9875 20.8079 15.0031 20.3587C16.0383 19.929 16.9367 19.3333 17.6984 18.5716C18.4602 17.8098 19.0559 16.9114 19.4855 15.8762C19.9348 14.8606 20.1594 13.7669 20.1594 12.595C20.1594 12.0872 20.1154 11.594 20.0275 11.1155C19.9396 10.637 19.8176 10.1731 19.6613 9.7239L19.6906 9.7825C20.8039 9.86062 21.8391 10.1243 22.7961 10.5735C23.7727 11.0423 24.6223 11.6575 25.3449 12.4192C26.0676 13.1809 26.634 14.0598 27.0441 15.0559C27.4543 16.0325 27.6594 17.0872 27.6594 18.22C27.6594 18.9427 27.5715 19.6458 27.3957 20.3294C27.2199 21.013 26.966 21.6575 26.634 22.263L26.6633 22.2044L27.6301 25.4563V25.4563" fill="#0A55AE"/>
<path id="Symbol_2" d="M27.2697 22.009C27.5627 21.4231 27.7922 20.7834 27.9582 20.0901C28.1242 19.3967 28.2072 18.6789 28.2072 17.9367C28.2072 16.7453 27.9924 15.6125 27.5627 14.5383C27.1525 13.4836 26.5764 12.5412 25.8342 11.7111C25.092 10.8811 24.2229 10.1926 23.2268 9.64572C22.2307 9.11837 21.1564 8.78634 20.0041 8.64962L19.9455 8.62032C19.5744 7.78048 19.1057 7.01876 18.5393 6.33517C17.9533 5.63204 17.2844 5.03146 16.5324 4.53341C15.7805 4.03536 14.965 3.64962 14.0861 3.37618C13.2072 3.10275 12.2893 2.96603 11.3322 2.96603C10.0432 2.96603 8.83223 3.21017 7.69941 3.69845C6.54707 4.18673 5.55098 4.85568 4.71113 5.70529C3.87129 6.55489 3.19746 7.54611 2.68965 8.67892C2.20137 9.83126 1.95723 11.052 1.95723 12.341C1.95723 13.0637 2.04023 13.7717 2.20625 14.4651C2.37227 15.1584 2.61152 15.8176 2.92402 16.4426L2.89473 16.384L2.04512 19.2844C2.00605 19.3625 1.98164 19.4455 1.97187 19.5334C1.96211 19.6213 1.95723 19.7141 1.95723 19.8117C1.95723 20.3195 2.14277 20.759 2.51387 21.1301C2.88496 21.5012 3.32441 21.6867 3.83223 21.6867C3.92988 21.6867 4.02266 21.6818 4.11055 21.6721C4.19844 21.6623 4.29121 21.6379 4.38887 21.5988H4.35957L7.25996 20.7492C7.68965 20.9641 8.14863 21.1447 8.63691 21.2912C9.1252 21.4377 9.63301 21.55 10.1604 21.6281H10.2189C10.5705 22.468 11.0393 23.2395 11.6252 23.9426C12.2111 24.6262 12.8801 25.2219 13.632 25.7297C14.384 26.2375 15.1994 26.6281 16.0783 26.9016C16.9572 27.175 17.8752 27.3117 18.8322 27.3117C19.5744 27.3117 20.2922 27.2287 20.9855 27.0627C21.6789 26.8967 22.3381 26.6574 22.9631 26.3449L22.9045 26.3742L25.8049 27.2238C25.883 27.2629 25.966 27.2873 26.0539 27.2971C26.1418 27.3068 26.2346 27.3117 26.3322 27.3117C26.84 27.3117 27.2795 27.1262 27.6506 26.7551C28.0217 26.384 28.2072 25.9445 28.2072 25.4367C28.2072 25.3391 28.2023 25.2463 28.1926 25.1584C28.1828 25.0705 28.1584 24.9777 28.1193 24.8801V24.9094L27.2697 22.009V22.009M7.34785 18.8156C7.30879 18.8156 7.26484 18.8205 7.21602 18.8303C7.16719 18.8401 7.12324 18.8449 7.08418 18.8449V18.8449L3.83223 19.8117L4.79902 16.5598C4.79902 16.5207 4.80391 16.4768 4.81367 16.4279C4.82344 16.3791 4.82832 16.3352 4.82832 16.2961C4.82832 16.218 4.81855 16.1399 4.79902 16.0617C4.77949 15.9836 4.7502 15.9152 4.71113 15.8567V15.8567C4.4377 15.3488 4.22285 14.7922 4.0666 14.1867C3.91035 13.5813 3.83223 12.9563 3.83223 12.3117C3.83223 11.2766 4.02754 10.3098 4.41816 9.41134C4.80879 8.49337 5.3459 7.69259 6.02949 7.009C6.71309 6.3254 7.5041 5.78829 8.40254 5.39767C9.32051 5.00704 10.2971 4.81173 11.3322 4.81173C12.3674 4.81173 13.3439 5.00704 14.2619 5.39767C15.1604 5.78829 15.9514 6.3254 16.635 7.009C17.3186 7.69259 17.8557 8.49337 18.2463 9.41134C18.6369 10.3098 18.8322 11.2766 18.8322 12.3117C18.8322 13.3469 18.6369 14.3234 18.2463 15.2414C17.8557 16.1594 17.3186 16.9553 16.635 17.6291C15.9514 18.3029 15.1604 18.8352 14.2619 19.2258C13.3439 19.6164 12.3674 19.8117 11.3322 19.8117C10.6877 19.8117 10.0627 19.7336 9.45723 19.5774C8.85176 19.4211 8.28535 19.1965 7.75801 18.9035L7.7873 18.9328C7.72871 18.8938 7.66035 18.8645 7.58223 18.8449C7.5041 18.8254 7.42598 18.8156 7.34785 18.8156V18.8156V18.8156V18.8156M25.3654 22.1848L26.3322 25.4367L23.0803 24.4699C23.0412 24.4699 22.9973 24.4651 22.9484 24.4553C22.8996 24.4455 22.8557 24.4406 22.8166 24.4406C22.7385 24.4406 22.6604 24.4504 22.5822 24.4699C22.5041 24.4895 22.4357 24.5188 22.3771 24.5578V24.5578C21.8693 24.8313 21.3127 25.0461 20.7072 25.2024C20.1018 25.3586 19.4768 25.4367 18.8322 25.4367C17.4455 25.4367 16.176 25.0901 15.0236 24.3967C13.8713 23.7033 12.9729 22.8 12.3283 21.6867L12.299 21.6281C13.4904 21.5109 14.5939 21.1789 15.6096 20.632C16.6447 20.1047 17.5383 19.426 18.2902 18.5959C19.0422 17.7658 19.633 16.8137 20.0627 15.7395C20.4924 14.6652 20.7072 13.5227 20.7072 12.3117C20.7072 12.0188 20.6926 11.7258 20.6633 11.4328C20.634 11.1399 20.59 10.8567 20.5314 10.5832L20.5607 10.6418C21.4006 10.8371 22.1721 11.1594 22.8752 11.6086C23.5783 12.0774 24.1838 12.6291 24.6916 13.2639C25.1994 13.8986 25.5998 14.6164 25.8928 15.4172C26.1857 16.218 26.3322 17.0578 26.3322 17.9367C26.3322 18.5813 26.2541 19.2063 26.0979 19.8117C25.9416 20.4172 25.717 20.9836 25.424 21.5109L25.4533 21.4817C25.4143 21.5402 25.385 21.6086 25.3654 21.6867C25.3459 21.7649 25.3361 21.843 25.3361 21.9211C25.3361 21.9602 25.341 22.0041 25.3508 22.0529C25.3605 22.1018 25.3654 22.1457 25.3654 22.1848V22.1848V22.1848V22.1848" fill="#0A55AE"/>
</g>
</svg>
