<svg preserveAspectRatio="none" overflow="visible" style="display: block;" width="34" height="34" viewBox="0 0 34 34" fill="none" xmlns="http://www.w3.org/2000/svg">
<g id="&#195;&#141;cone">
<path id="Vetor" opacity="0.2" d="M29.75 12.2188C29.75 13.4583 29.5176 14.6315 29.0527 15.7383C28.5658 16.8229 27.9128 17.7747 27.0938 18.5938C26.2747 19.4128 25.3229 20.0658 24.2383 20.5527C23.1315 21.0176 21.9583 21.25 20.7188 21.25V21.25H10.0938C8.47786 21.25 7.09993 20.68 5.95996 19.54C4.81999 18.4001 4.25 17.0221 4.25 15.4062C4.25 13.7904 4.81999 12.4124 5.95996 11.2725C7.09993 10.1325 8.47786 9.5625 10.0938 9.5625C10.4258 9.5625 10.7523 9.59017 11.0732 9.64551C11.3942 9.70085 11.7096 9.78385 12.0195 9.89453L11.9863 9.86133V9.89453C12.252 8.92057 12.6615 8.02409 13.2148 7.20508C13.7682 6.38607 14.4268 5.67773 15.1904 5.08008C15.9541 4.48242 16.8008 4.01758 17.7305 3.68555C18.6823 3.35352 19.6784 3.1875 20.7188 3.1875C21.9583 3.1875 23.1315 3.41992 24.2383 3.88477C25.3229 4.37174 26.2747 5.02474 27.0938 5.84375C27.9128 6.66276 28.5658 7.61458 29.0527 8.69922C29.5176 9.80599 29.75 10.9792 29.75 12.2188V12.2188V12.2188" fill="#0A55AE"/>
<path id="Vetor_2" d="M20.7188 2.125C19.6562 2.125 18.638 2.27995 17.6641 2.58984C16.6901 2.92188 15.7936 3.37012 14.9746 3.93457C14.1556 4.49902 13.4251 5.16862 12.7832 5.94336C12.1634 6.74023 11.6654 7.60352 11.2891 8.5332V8.59961C11.112 8.57747 10.9183 8.55534 10.708 8.5332C10.4977 8.51107 10.293 8.5 10.0938 8.5V8.5C9.14193 8.5 8.24544 8.67708 7.4043 9.03125C6.56315 9.40755 5.83268 9.9056 5.21289 10.5254C4.5931 11.1452 4.09505 11.8757 3.71875 12.7168C3.36458 13.5579 3.1875 14.4544 3.1875 15.4062C3.1875 16.3581 3.36458 17.2546 3.71875 18.0957C4.09505 18.9368 4.5931 19.6673 5.21289 20.2871C5.83268 20.9069 6.56315 21.4049 7.4043 21.7812C8.24544 22.1354 9.14193 22.3125 10.0938 22.3125V22.3125H15.1074L12.916 26.0312C12.8496 26.0977 12.8053 26.1751 12.7832 26.2637C12.7611 26.3522 12.75 26.4518 12.75 26.5625C12.75 26.8503 12.8551 27.0993 13.0654 27.3096C13.2757 27.5199 13.5247 27.625 13.8125 27.625V27.625V27.625H17.2324L15.041 31.3438C14.9746 31.4102 14.9303 31.4876 14.9082 31.5762C14.8861 31.6647 14.875 31.7643 14.875 31.875C14.875 32.1628 14.9801 32.4118 15.1904 32.6221C15.4007 32.8324 15.6497 32.9375 15.9375 32.9375C16.1367 32.9375 16.3138 32.8932 16.4688 32.8047C16.6237 32.7161 16.7454 32.5944 16.834 32.4395V32.4062L20.0215 27.0938C20.0879 27.0273 20.1322 26.9499 20.1543 26.8613C20.1764 26.7728 20.1875 26.6732 20.1875 26.5625C20.1875 26.2747 20.0824 26.0257 19.8721 25.8154C19.6618 25.6051 19.4128 25.5 19.125 25.5V25.5V25.5H15.7051L17.5977 22.3125H20.7188C22.1133 22.3125 23.4193 22.0469 24.6367 21.5156C25.8763 20.9844 26.9499 20.265 27.8574 19.3574C28.765 18.4499 29.4844 17.3763 30.0156 16.1367C30.5469 14.9193 30.8125 13.6133 30.8125 12.2188C30.8125 10.8242 30.5469 9.51823 30.0156 8.30078C29.4844 7.0612 28.765 5.98763 27.8574 5.08008C26.9499 4.17253 25.8763 3.45312 24.6367 2.92188C23.4193 2.39062 22.1133 2.125 20.7188 2.125V2.125V2.125V2.125M20.7188 20.1875H10.0938C8.76562 20.1875 7.63672 19.7227 6.70703 18.793C5.77734 17.8633 5.3125 16.7344 5.3125 15.4062C5.3125 14.0781 5.77734 12.9492 6.70703 12.0195C7.63672 11.0898 8.76562 10.625 10.0938 10.625V10.625C10.2044 10.625 10.3151 10.6305 10.4258 10.6416C10.5365 10.6527 10.6471 10.6582 10.7578 10.6582H10.7246C10.6803 10.9902 10.6471 11.3112 10.625 11.6211C10.625 11.6432 10.625 11.6598 10.625 11.6709C10.625 11.682 10.625 11.6875 10.625 11.6875C10.625 11.9753 10.7301 12.2243 10.9404 12.4346C11.1507 12.6449 11.3997 12.75 11.6875 12.75C11.9753 12.75 12.2188 12.6559 12.418 12.4678C12.6172 12.2796 12.7279 12.0417 12.75 11.7539V11.7539C12.8164 10.6914 13.071 9.70638 13.5137 8.79883C13.9564 7.89128 14.5319 7.09993 15.2402 6.4248C15.9486 5.74967 16.7786 5.21289 17.7305 4.81445C18.6602 4.43815 19.6562 4.25 20.7188 4.25C21.8255 4.25 22.8548 4.44922 23.8066 4.84766C24.7806 5.26823 25.6273 5.83822 26.3467 6.55762C27.0661 7.27702 27.6361 8.1237 28.0566 9.09766C28.4772 10.0716 28.6875 11.112 28.6875 12.2188C28.6875 13.3034 28.4772 14.3327 28.0566 15.3066C27.6361 16.2806 27.0661 17.1273 26.3467 17.8467C25.6273 18.5661 24.7806 19.1361 23.8066 19.5566C22.8548 19.9772 21.8255 20.1875 20.7188 20.1875V20.1875V20.1875V20.1875" fill="#0A55AE"/>
</g>
</svg>
